<?xml version="1.0" standalone="no"?>
<!DOCTYPE svg PUBLIC "-//W3C//DTD SVG 20010904//EN"
 "http://www.w3.org/TR/2001/REC-SVG-20010904/DTD/svg10.dtd">
<svg version="1.0" xmlns="http://www.w3.org/2000/svg"
 width="16.000000pt" height="16.000000pt" viewBox="0 0 16.000000 16.000000"
 preserveAspectRatio="xMidYMid meet">
<metadata>
Created by potrace 1.11, written by Peter Selinger 2001-2013
</metadata>
<g transform="translate(0.000000,16.000000) scale(0.005000,-0.005000)"
fill="#000000" stroke="none">
<path d="M0 1600 l0 -1600 1600 0 1600 0 0 1600 0 1600 -1600 0 -1600 0 0
-1600z m1517 1520 c57 -20 57 -20 95 0 43 22 79 25 109 10 11 -6 53 -53 95
-105 91 -115 113 -128 194 -119 64 7 83 -7 33 -24 -26 -8 -24 -9 27 -16 65 -9
117 -31 131 -58 13 -24 4 -38 -27 -38 -24 0 -64 -31 -64 -50 0 -29 46 -125 76
-156 32 -35 36 -36 90 -32 l56 5 -59 -33 c-32 -19 -62 -36 -68 -38 -20 -9 21
-26 65 -26 121 0 196 -58 214 -165 12 -70 36 -131 60 -154 13 -12 54 -33 91
-46 l68 -23 -41 -12 c-62 -19 -100 -6 -208 71 -167 119 -189 125 -310 88 -67
-21 -121 -21 -231 -2 -31 5 -33 3 -33 -24 0 -21 12 -41 45 -73 25 -25 43 -50
41 -57 -4 -10 38 -13 202 -13 l207 -1 -63 -26 c-35 -14 -61 -27 -59 -30 3 -2
53 -12 113 -21 l109 -17 8 -70 c5 -39 6 -212 4 -385 -5 -317 -22 -532 -53
-680 -21 -102 -82 -226 -144 -294 -55 -60 -95 -84 -542 -330 l-248 -136 -342
187 c-189 102 -366 203 -395 224 -55 41 -129 137 -158 204 -37 88 -57 178 -76
355 -23 208 -35 676 -22 830 l8 95 50 7 c28 5 81 13 120 19 l69 12 -64 26 -64
26 203 3 c141 2 200 6 195 13 -3 6 14 32 39 57 l46 47 3 250 c3 231 5 254 26
305 29 74 107 160 177 196 46 24 55 33 50 49 -13 45 -16 122 -6 148 19 49 70
58 158 27z"/>
<path d="M1485 3014 c-14 -15 -25 -30 -25 -35 0 -4 -3 -16 -7 -26 -6 -16 -5
-16 10 -4 9 7 17 18 17 23 0 6 9 23 21 39 26 36 16 38 -16 3z"/>
<path d="M1641 2951 c-14 -4 -26 -12 -29 -19 -5 -15 0 -15 32 -1 21 10 35 7
90 -19 75 -35 86 -34 24 2 -60 34 -89 44 -117 37z"/>
<path d="M1465 2931 c-6 -4 -32 -14 -60 -20 -104 -25 -189 -97 -239 -201 l-31
-65 -2 -255 -3 -255 80 -85 c45 -47 108 -115 142 -153 56 -62 64 -67 97 -64
l36 2 3 553 c1 303 -1 552 -6 552 -4 0 -12 -4 -17 -9z m-140 -420 c22 -10 51
-30 65 -45 21 -23 22 -29 10 -36 -22 -14 -67 -12 -100 5 -24 13 -70 70 -70 89
0 12 56 5 95 -13z m-107 -269 c-4 -159 -22 -163 -26 -5 -3 122 1 154 19 136 6
-6 8 -60 7 -131z m77 -45 c0 -96 -4 -158 -10 -159 -6 -2 -11 58 -13 160 -2
129 0 163 10 160 10 -4 13 -43 13 -161z m80 101 c3 -13 4 -92 3 -177 -2 -113
-6 -155 -15 -159 -10 -3 -13 37 -13 177 0 112 4 181 10 181 5 0 12 -10 15 -22z"/>
<path d="M1509 2935 c-1 -3 -1 -16 -1 -30 0 -14 0 -261 1 -550 l1 -524 35 1
c37 1 29 -6 287 274 l29 31 -1 246 c0 223 -2 251 -20 300 -42 111 -130 193
-240 223 -30 8 -63 19 -72 25 -10 5 -18 7 -19 4z m251 -419 c0 -22 -46 -72
-80 -86 -30 -12 -100 -6 -100 9 0 9 36 42 70 63 47 29 110 37 110 14z m38
-274 c-4 -159 -22 -163 -26 -5 -3 122 1 154 19 136 6 -6 8 -60 7 -131z m-80
-42 c-4 -207 -22 -216 -26 -13 -3 151 0 173 18 173 7 0 10 -53 8 -160z m-78
-60 c0 -226 -18 -244 -22 -22 -3 171 -1 202 13 202 5 0 9 -76 9 -180z"/>
<path d="M1820 2776 c0 -3 5 -15 12 -25 9 -15 19 -18 45 -14 23 4 51 -2 93
-21 84 -38 91 -29 14 18 -45 27 -81 41 -115 44 -27 2 -49 2 -49 -2z"/>
<path d="M1895 2668 c22 -11 61 -40 86 -63 55 -51 91 -71 144 -79 l40 -7 -48
20 c-27 11 -73 39 -104 63 -97 75 -117 88 -138 88 -14 -1 -9 -7 20 -22z"/>
<path d="M1880 2465 c0 -14 72 -35 119 -35 34 0 56 6 72 20 l24 20 -27 -6
c-42 -9 -99 -9 -145 0 -24 4 -43 5 -43 1z"/>
<path d="M1968 2393 c-108 -21 -118 -40 -18 -35 70 4 72 4 210 -63 76 -37 145
-65 152 -63 7 3 -8 14 -34 26 -27 11 -73 39 -104 61 -30 22 -69 43 -85 46 -55
12 -41 25 29 25 104 0 156 -20 245 -95 43 -36 81 -65 84 -65 13 0 -143 137
-176 154 -49 26 -189 30 -303 9z"/>
<path d="M1080 2085 c-18 -19 -32 -36 -29 -38 89 -63 311 -276 389 -373 l57
-72 35 47 c59 78 188 210 298 304 58 49 106 93 108 96 1 4 -13 21 -31 39 l-33
32 -106 -112 c-57 -62 -119 -130 -137 -150 l-33 -38 -102 1 -101 1 -135 148
c-74 81 -137 148 -141 149 -3 1 -20 -15 -39 -34z"/>
<path d="M750 2006 c0 -3 45 -26 100 -52 55 -26 100 -51 100 -56 0 -4 -15 -8
-32 -8 -18 0 -101 -10 -185 -22 l-152 -21 -8 -46 c-12 -72 -8 -552 6 -696 33
-347 51 -434 109 -517 42 -60 98 -112 106 -99 9 14 -2 33 -15 26 -5 -3 -6 0
-3 8 3 8 -2 17 -12 21 -14 5 -15 4 -4 -9 7 -8 8 -15 2 -15 -12 0 -21 21 -15
38 4 10 8 10 19 2 11 -10 12 -7 8 12 -3 12 -8 34 -10 48 l-5 25 16 -25 c15
-22 15 -13 0 23 -12 29 156 258 226 308 l29 20 0 -48 c0 -26 -9 -127 -20 -223
-11 -96 -20 -183 -20 -192 0 -15 56 -55 65 -46 9 9 46 369 48 465 l3 112 59
45 c33 25 63 42 66 38 3 -4 27 -61 54 -127 59 -144 231 -488 304 -604 28 -46
50 -89 48 -95 -8 -19 -139 -87 -151 -77 -6 4 -74 41 -151 81 -77 40 -146 78
-154 84 -8 6 -5 -2 7 -19 14 -19 81 -63 182 -118 l159 -88 258 142 c357 196
386 213 422 254 38 44 74 112 95 184 15 50 45 305 62 531 l8 95 9 -52 c5 -35
13 -53 23 -53 14 0 30 -42 21 -57 -2 -4 -1 -17 4 -28 5 -15 8 -6 10 30 1 28 3
61 6 75 9 58 6 576 -4 600 -10 24 -20 27 -129 43 -66 9 -131 17 -146 17 -43 0
-33 13 30 42 l57 26 -164 1 -164 1 -66 -56 c-108 -91 -249 -234 -308 -312 -30
-41 -59 -70 -63 -65 -5 4 -29 35 -55 68 -60 78 -216 237 -303 309 l-69 56
-157 0 c-86 0 -156 -2 -156 -4z m745 -436 c6 0 28 3 50 6 l40 6 -47 -32 c-27
-17 -58 -45 -69 -62 -24 -33 -49 -108 -49 -147 0 -23 -10 -30 -73 -59 -39 -18
-74 -34 -76 -35 -5 -2 -76 206 -86 251 -6 28 -5 29 67 50 92 27 121 31 183 26
28 -2 55 -3 60 -4z m298 -39 c72 -25 183 -83 222 -117 l30 -25 -75 6 c-96 7
-292 -9 -392 -34 -89 -21 -92 -18 -59 56 22 48 75 87 154 114 64 23 53 23 120
0z m-643 -173 c23 -73 45 -138 47 -144 2 -6 -22 -30 -53 -54 -53 -40 -59 -42
-68 -25 -38 65 -97 122 -155 151 l-63 31 54 45 c49 42 176 128 189 128 3 0 25
-60 49 -132z m981 -56 c31 -12 100 -103 147 -191 33 -64 34 -68 28 -151 -7
-93 -23 -162 -52 -227 l-19 -43 -50 41 c-85 68 -214 152 -360 234 -194 108
-244 148 -284 225 -39 75 -39 76 36 94 37 9 95 21 128 26 75 11 391 6 426 -8z
m-1230 -88 c30 -15 82 -72 103 -113 l15 -29 -108 -108 c-59 -60 -124 -133
-144 -163 -33 -50 -36 -52 -46 -32 -12 21 -41 195 -41 244 0 30 46 127 91 194
28 41 29 41 66 31 21 -6 50 -16 64 -24z m658 -166 c34 -31 120 -87 203 -133
163 -91 322 -194 388 -253 l45 -40 -36 -33 c-19 -19 -98 -68 -175 -110 -76
-42 -169 -93 -205 -113 l-66 -36 -76 127 c-41 71 -109 196 -151 278 -76 152
-186 406 -186 429 0 7 30 27 67 44 l67 31 33 -69 c23 -48 50 -84 92 -122z
m-805 -355 c10 -21 12 -34 6 -38 -6 -4 -10 -3 -9 2 3 18 -1 34 -8 30 -5 -3 -9
6 -9 20 -2 28 -2 28 20 -14z m486 -353 c8 -5 11 -10 5 -10 -5 0 -17 5 -25 10
-8 5 -10 10 -5 10 6 0 17 -5 25 -10z"/>
<path d="M800 476 c0 -3 9 -10 20 -16 11 -6 20 -8 20 -6 0 3 -9 10 -20 16 -11
6 -20 8 -20 6z"/>
</g>
</svg>
